#!OML:ASF I:\Actors\actors\Patient Classification 2\Patient 1\Session 1\actor1.ASF
:FULLY-SPECIFIED
:DEGREES
851
root -0.50977 18.5533 5.70357 -0.333241 5.77147 -7.37421
lowerback 15.8148 1.21566 0.110499
upperback 0.8735 1.54967 -0.978225
thorax -7.91384 0.727164 -1.45501
lowerneck -19.6754 -3.77098 -2.06034
upperneck 11.1199 -4.9486 2.66679
head 6.70694 -2.23286 0.636055
rclavicle 2.48481e-014 1.59028e-015
rhumerus -8.01204 9.5983 -19.9849
rradius 104.713
rwrist -17.4904
rhand 9.35952 -32.8589
rfingers 7.12502
rthumb 34.5186 -59.526
lclavicle 2.48481e-014 1.59028e-015
lhumerus 10.1165 -19.2054 39.3208
lradius 94.1144
lwrist 30.6982
lhand 9.61203 -20.9144
lfingers 7.12502
lthumb 34.7583 5.69779
rfemur 9.30033 -1.93808 20.9994
rtibia -2.70347e-014
rfoot -17.3879 -13.2629
rtoes -16.8349
lfemur -11.544 -3.6708 -6.35927
ltibia 32.2886
lfoot -20.9869 3.82481
ltoes -57.5066
852
root -0.50827 18.5524 5.72443 -0.35625 5.93865 -7.39233
lowerback 15.6784 1.24548 -0.0170953
upperback 0.788569 1.56202 -1.03591
thorax -7.93101 0.736388 -1.44508
lowerneck -19.4223 -3.87335 -2.12724
upperneck 10.6088 -5.05847 2.66844
head 6.50394 -2.29585 0.643026
rclavicle 1.88845e-014 -1.59028e-015
rhumerus -7.42492 7.86728 -19.8569
rradius 104.312
rwrist -17.3938
rhand 9.3451 -32.8463
rfingers 7.12502
rthumb 34.5049 -59.5165
lclavicle 1.88845e-014 -1.59028e-015
lhumerus 10.8704 -18.574 39.984
lradius 93.7536
lwrist 30.5872
lhand 9.54686 -21.0023
lfingers 7.12502
lthumb 34.6964 5.62413
rfemur 9.41123 -2.10512 21.0107
rtibia -1.59028e-014
rfoot -17.4144 -13.2489
rtoes -17.0122
lfemur -11.5102 -3.75992 -6.34693
ltibia 32.2899
lfoot -21.0008 3.77841
ltoes -57.6102
853
root -0.507597 18.5533 5.74519 -0.340118 6.09928 -7.47599
lowerback 15.5057 1.24661 -0.078887
upperback 0.740794 1.55053 -1.07361
thorax -7.88698 0.732755 -1.44392
lowerneck -19.5941 -4.00218 -2.34072
upperneck 10.3851 -5.18062 2.77078
head 6.4705 -2.35464 0.695186
rclavicle 2.22639e-014 1.59028e-015
rhumerus -6.85337 6.29899 -19.4883
rradius 103.97
rwrist -17.6911
rhand 9.05433 -32.8466
rfingers 7.12502
rthumb 34.2289 -59.5793
lclavicle 2.22639e-014 1.59028e-015
lhumerus 11.6118 -17.8867 40.699
lradius 93.4022
lwrist 30.4543
lhand 9.34801 -21.0895
lfingers 7.12502
lthumb 34.5077 5.58013
rfemur 9.47301 -2.26607 21.1019
rtibia 3.18055e-015
rfoot -17.4526 -13.2321
rtoes -16.9876
lfemur -11.5232 -3.82502 -6.24629
ltibia 32.2918
lfoot -21.0641 3.66347
ltoes -57.6132
854
root -0.507003 18.5535 5.76775 -0.348292 6.25004 -7.54564
lowerback 15.3542 1.25411 -0.143225
upperback 0.672489 1.54622 -1.11974
thorax -7.87652 0.73218 -1.45297
lowerneck -19.7849 -4.1266 -2.51068
upperneck 10.2203 -5.30136 2.82571
head 6.45684 -2.4142 0.724369
rclavicle -1.88845e-014 -1.27222e-014
rhumerus -6.26274 4.78026 -19.1188
rradius 103.61
rwrist -17.8823
rhand 8.65272 -32.9339
rfingers 7.12502
rthumb 33.8474 -59.7514
lclavicle -1.88845e-014 -1.27222e-014
lhumerus 12.3076 -17.2893 41.4473
lradius 93.0497
lwrist 30.3148
lhand 9.10635 -21.1054
lfingers 7.12502
lthumb 34.2783 5.6162
rfemur 9.5665 -2.41718 21.1733
rtibia 2.8625e-014
rfoot -17.5074 -13.2012
rtoes -16.9492
lfemur -11.4947 -3.93461 -6.16639
ltibia 32.2984
lfoot -21.1411 3.61867
ltoes -57.5849
855
root -0.506155 18.5528 5.79034 -0.381921 6.39877 -7.55582
lowerback 15.1234 1.28841 -0.347215
upperback 0.650639 1.55746 -1.13283
thorax -7.77585 0.745646 -1.34768
lowerneck -19.7301 -4.22797 -2.57986
upperneck 9.83141 -5.3987 2.76149
head 6.3243 -2.47325 0.708218
rclavicle -1.55052e-014 0
rhumerus -5.53958 3.14225 -18.8086
rradius 103.166
rwrist -17.7346
rhand 8.28968 -32.8916
rfingers 7.12502
rthumb 33.5024 -59.7844
lclavicle -1.55052e-014 0
lhumerus 13.0285 -16.729 42.2565
lradius 92.6408
lwrist 30.1575
lhand 8.7913 -21.1812
lfingers 7.12502
lthumb 33.979 5.60721
rfemur 9.68926 -2.56569 21.1718
rtibia -2.06736e-014
rfoot -17.5739 -13.1402
rtoes -16.6663
lfemur -11.4368 -4.06228 -6.1636
ltibia 32.3116
lfoot -21.1638 3.63601
ltoes -57.6331
856
root -0.504992 18.5523 5.8122 -0.398047 6.53976 -7.52912
lowerback 14.6475 1.31942 -0.810567
upperback 0.759841 1.5375 -1.01387
thorax -7.40822 0.756653 -0.938867
lowerneck -19.5402 -4.28095 -2.71432
upperneck 9.22159 -5.40696 2.66212
head 6.09769 -2.49734 0.706063
rclavicle -1.23246e-014 -2.06736e-014
rhumerus -4.50602 1.4451 -18.4184
rradius 102.633
rwrist -17.4193
rhand 7.88776 -32.5305
rfingers 7.12502
rthumb 33.1203 -59.5053
lclavicle -1.23246e-014 -2.06736e-014
lhumerus 13.7208 -16.0046 43.2225
lradius 92.1428
lwrist 29.9864
lhand 8.45364 -21.297
lfingers 7.12502
lthumb 33.6582 5.56196
rfemur 9.7909 -2.70537 21.1261
rtibia 4.29375e-014
rfoot -17.6814 -13.0412
rtoes -15.885
lfemur -11.4003 -4.14742 -6.20168
ltibia 32.3226
lfoot -21.1396 3.61676
ltoes -57.6387
857
root -0.503409 18.5516 5.83418 -0.437107 6.68636 -7.54359
lowerback 14.5917 1.36941 -0.893718
upperback 0.623289 1.58237 -1.10226
thorax -7.52311 0.779351 -0.996541
lowerneck -19.3606 -4.4155 -2.83211
upperneck 8.94585 -5.55779 2.68842
head 5.98828 -2.57618 0.722438
rclavicle -1.09332e-014 1.43125e-014
rhumerus -4.02837 -0.0316426 -18.1923
rradius 102.207
rwrist -17.094
rhand 7.4826 -32.0622
rfingers 7.12502
rthumb 32.7349 -59.118
lclavicle -1.09332e-014 1.43125e-014
lhumerus 14.4283 -15.8317 43.9836
lradius 91.659
lwrist 29.9517
lhand 8.24826 -21.288
lfingers 7.12502
lthumb 33.463 5.6134
rfemur 9.91213 -2.85172 21.1267
rtibia 6.36111e-015
rfoot -17.7487 -12.9822
rtoes -15.4978
lfemur -11.3437 -4.22872 -6.19216
ltibia 32.3281
lfoot -21.1542 3.57059
ltoes -57.652
